<?xml version="1.0" encoding="UTF-8"?>
<svg id="Layer_2" data-name="Layer 2" xmlns="http://www.w3.org/2000/svg" xmlns:xlink="http://www.w3.org/1999/xlink" viewBox="0 0 250.91 303.79">
  <defs>
    <style>
      .cls-1 {
        clip-path: url(#clippath);
      }

      .cls-2 {
        fill: none;
      }

      .cls-2, .cls-3, .cls-4, .cls-5, .cls-6, .cls-7, .cls-8, .cls-9, .cls-10, .cls-11 {
        stroke-width: 0px;
      }

      .cls-3 {
        fill: url(#linear-gradient);
      }

      .cls-4 {
        fill: url(#linear-gradient-4);
      }

      .cls-5 {
        fill: url(#linear-gradient-2);
      }

      .cls-6 {
        fill: url(#linear-gradient-3);
      }

      .cls-7 {
        fill: url(#linear-gradient-8);
      }

      .cls-8 {
        fill: url(#linear-gradient-9);
      }

      .cls-9 {
        fill: url(#linear-gradient-7);
      }

      .cls-10 {
        fill: url(#linear-gradient-5);
      }

      .cls-11 {
        fill: url(#linear-gradient-6);
      }
    </style>
    <clipPath id="clippath">
      <path class="cls-2" d="M143.21,107.24l-103.34-34.8c-8.3-2.79-17.31,1.5-20.37,9.7L.43,133.31c-1.31,3.52.5,7.42,4.04,8.69l49.93,17.91-34.84,104.52c-2.77,8.31,1.56,17.32,9.79,20.35l50.59,18.59c3.49,1.28,7.35-.5,8.64-3.99l18.5-50.05,103.96,34.83c8.29,2.78,17.29-1.52,20.35-9.71l19.11-51.24c1.31-3.5-.49-7.39-4-8.68l-50.6-18.5,35.31-103.25c2.85-8.33-1.47-17.4-9.72-20.46l-51.67-19.11c-3.51-1.3-7.41.52-8.67,4.04l-17.92,49.95Z"/>
    </clipPath>
    <linearGradient id="linear-gradient" x1="152.14" y1="122.96" x2="178.36" y2="51.05" gradientUnits="userSpaceOnUse">
      <stop offset="0" stop-color="#4c4c4c"/>
      <stop offset=".06" stop-color="#626262"/>
      <stop offset=".17" stop-color="#838383"/>
      <stop offset=".29" stop-color="#9e9e9e"/>
      <stop offset=".42" stop-color="#b3b3b3"/>
      <stop offset=".57" stop-color="#c2c2c2"/>
      <stop offset=".74" stop-color="#cbcbcb"/>
      <stop offset="1" stop-color="#cecece"/>
    </linearGradient>
    <linearGradient id="linear-gradient-2" x1="74.74" y1="158.53" x2="-7.68" y2="134.85" gradientUnits="userSpaceOnUse">
      <stop offset="0" stop-color="#4c4c4c"/>
      <stop offset=".02" stop-color="#505050"/>
      <stop offset=".16" stop-color="#777"/>
      <stop offset=".31" stop-color="#969696"/>
      <stop offset=".46" stop-color="#afafaf"/>
      <stop offset=".62" stop-color="silver"/>
      <stop offset=".79" stop-color="#cacaca"/>
      <stop offset="1" stop-color="#cecece"/>
    </linearGradient>
    <linearGradient id="linear-gradient-3" x1="183.36" y1="206.48" x2="256.72" y2="232.36" gradientUnits="userSpaceOnUse">
      <stop offset="0" stop-color="#4c4c4c"/>
      <stop offset=".07" stop-color="#676767"/>
      <stop offset=".17" stop-color="#868686"/>
      <stop offset=".29" stop-color="#a0a0a0"/>
      <stop offset=".41" stop-color="#b4b4b4"/>
      <stop offset=".55" stop-color="#c3c3c3"/>
      <stop offset=".72" stop-color="#cbcbcb"/>
      <stop offset="1" stop-color="#cecece"/>
    </linearGradient>
    <linearGradient id="linear-gradient-4" x1="100.54" y1="235.9" x2="75.08" y2="302.76" gradientUnits="userSpaceOnUse">
      <stop offset="0" stop-color="#4c4c4c"/>
      <stop offset=".08" stop-color="#6a6a6a"/>
      <stop offset=".17" stop-color="#898989"/>
      <stop offset=".28" stop-color="#a2a2a2"/>
      <stop offset=".39" stop-color="#b5b5b5"/>
      <stop offset=".53" stop-color="#c3c3c3"/>
      <stop offset=".69" stop-color="#cbcbcb"/>
      <stop offset="1" stop-color="#cecece"/>
    </linearGradient>
    <linearGradient id="linear-gradient-5" x1="174.81" y1="158.67" x2="5.63" y2="102.57" gradientUnits="userSpaceOnUse">
      <stop offset="0" stop-color="#666"/>
      <stop offset=".02" stop-color="#737373"/>
      <stop offset=".08" stop-color="#939393"/>
      <stop offset=".15" stop-color="#aeaeae"/>
      <stop offset=".22" stop-color="#c4c4c4"/>
      <stop offset=".31" stop-color="#d5d5d5"/>
      <stop offset=".42" stop-color="#e1e1e1"/>
      <stop offset=".57" stop-color="#e8e8e8"/>
      <stop offset="1" stop-color="#eaeaea"/>
    </linearGradient>
    <linearGradient id="linear-gradient-6" x1="154.31" y1="221.38" x2="206.92" y2="51.87" gradientUnits="userSpaceOnUse">
      <stop offset="0" stop-color="#666"/>
      <stop offset=".02" stop-color="#6f6f6f"/>
      <stop offset=".08" stop-color="#909090"/>
      <stop offset=".16" stop-color="#acacac"/>
      <stop offset=".24" stop-color="#c3c3c3"/>
      <stop offset=".34" stop-color="#d4d4d4"/>
      <stop offset=".46" stop-color="#e0e0e0"/>
      <stop offset=".61" stop-color="#e7e7e7"/>
      <stop offset="1" stop-color="#eaeaea"/>
    </linearGradient>
    <linearGradient id="linear-gradient-7" x1="83.68" y1="204.74" x2="254.21" y2="260.17" gradientUnits="userSpaceOnUse">
      <stop offset="0" stop-color="#666"/>
      <stop offset=".02" stop-color="#6f6f6f"/>
      <stop offset=".08" stop-color="#909090"/>
      <stop offset=".16" stop-color="#acacac"/>
      <stop offset=".24" stop-color="#c3c3c3"/>
      <stop offset=".34" stop-color="#d4d4d4"/>
      <stop offset=".46" stop-color="#e0e0e0"/>
      <stop offset=".61" stop-color="#e7e7e7"/>
      <stop offset="1" stop-color="#eaeaea"/>
    </linearGradient>
    <linearGradient id="linear-gradient-8" x1="107.18" y1="135.16" x2="44.69" y2="302.38" xlink:href="#linear-gradient-5"/>
    <linearGradient id="linear-gradient-9" x1="1058.27" y1="-121.85" x2="962.1" y2="-69.97" gradientTransform="translate(-765.54 143.54) scale(.87 1.05)" gradientUnits="userSpaceOnUse">
      <stop offset="0" stop-color="#666"/>
      <stop offset=".02" stop-color="#737373"/>
      <stop offset=".08" stop-color="#929292"/>
      <stop offset=".15" stop-color="#aeaeae"/>
      <stop offset=".23" stop-color="#c4c4c4"/>
      <stop offset=".32" stop-color="#d5d5d5"/>
      <stop offset=".43" stop-color="#e1e1e1"/>
      <stop offset=".58" stop-color="#e8e8e8"/>
      <stop offset="1" stop-color="#eaeaea"/>
    </linearGradient>
  </defs>
  <g id="Layer_1-2" data-name="Layer 1">
    <g>
      <g class="cls-1">
        <polygon class="cls-3" points="163.12 45.07 136.78 115.51 170.47 122.25 166.79 44.46 163.12 45.07"/>
        <polygon class="cls-5" points="-10.23 133.27 75.53 133.27 54.87 178.31 -10.23 133.27"/>
        <polygon class="cls-6" points="259.29 213.51 194.36 189.62 182.72 226.99 260.51 219.64 259.29 213.51"/>
        <polygon class="cls-4" points="79.82 233.11 117.79 247.81 89.62 315.8 73.08 313.97 79.82 233.11"/>
        <path class="cls-10" d="M40.18,72.74l-25.91-6.85L-4.1,140.62h98.42c1.2-.39,2.47-.61,3.8-.61h53.44c5.5,0,10.15,3.66,11.66,8.67l10.93,10.93v-42.26L40.18,72.74Z"/>
        <path class="cls-11" d="M163.73,43.84v161.17c0,6.72-5.45,12.17-12.17,12.17h-4.79c-1.7,1.23-3.39,2.45-5.09,3.68,14.9.82,29.81,1.63,44.71,2.45l44.8-130.51,14-17.11-81.47-31.85Z"/>
        <path class="cls-9" d="M151.56,217.19h-53.44c-6.72,0-12.17-5.45-12.17-12.17v-7.12l-15.31,38.28,140.41,48,22.52,15.7,31.24-82.69h-113.24Z"/>
        <path class="cls-7" d="M85.94,205.01v-52.83c0-6.18,4.61-11.27,10.58-12.06-11.9.17-23.79.33-35.69.5-13.76,41.27-27.51,82.54-41.27,123.82-5.03,5.89-10.05,11.79-15.08,17.68,27.36,12.05,54.72,24.09,82.08,36.14l-.48-111.56c-.08-.55-.13-1.11-.13-1.68Z"/>
      </g>
      <path class="cls-8" d="M121.9,16.68h27.75v5.56c0,22.53-18.29,40.81-40.81,40.81h-27.75v-5.56c0-22.53,18.29-40.81,40.81-40.81Z" transform="translate(189.74 -56.92) rotate(108.48)"/>
    </g>
  </g>
</svg>